<?xml version="1.0" encoding="UTF-8"?>
<svg width="48" height="48" version="1.1" viewBox="0 0 48 48" xmlns="http://www.w3.org/2000/svg" xmlns:svg="http://www.w3.org/2000/svg">
  <rect width="45" height="45" x="1.5" y="1.5" fill="white" stroke="#e02d71" stroke-width="3"/>
  <path d="m 37.642945,8.8904057 c -1.533,-1.63 -3.667,-2.444 -6.399,-2.444 -1.48166,-0.01713 -2.939607,0.37269 -4.215,1.127 -1.241401,0.728995 -2.278761,1.759477 -3.016,2.9960003 -0.651363,-1.2767603 -1.65862,-2.3375063 -2.9,-3.0540003 -1.310607,-0.730507 -2.791865,-1.099441 -4.292,-1.069 -1.360979,-0.0335 -2.707095,0.289154 -3.905,0.936 -1.07499,0.597831 -1.966369,1.477801 -2.578,2.545 v -3.29 H 2.7079452 V 28.040406 h 7.6169998 v -11.363 c -0.06758,-1.018924 0.289296,-2.020423 0.986,-2.767 0.358,-0.334 0.78,-0.593 1.243,-0.76 0.462,-0.167 0.953,-0.24 1.445,-0.214 0.472435,-0.02117 0.944339,0.05227 1.388,0.216 0.443,0.164 0.848,0.415 1.19,0.738 0.67952,0.727382 1.024908,1.705196 0.953,2.698 v 11.452 h 7.605 v -11.363 c -0.0677,-1.018941 0.289192,-2.020486 0.986,-2.767 0.358252,-0.33484 0.780798,-0.593403 1.242,-0.76 0.462,-0.167 0.954,-0.24 1.445,-0.214 0.473,-0.021 0.945,0.052 1.388,0.216 0.443,0.164 0.848,0.415 1.19,0.738 0.684924,0.724854 1.035539,1.703094 0.967,2.698 v 11.452 h 7.591 v -12.432 c 0,-2.85 -0.767,-5.09 -2.3,-6.7180003 z" fill="#150c26" transform="translate(2.6740549,6.7577775)" />
</svg>
